<svg preserveAspectRatio="xMidYMid meet" viewBox="0 0 1280.000000 1189.000000" height="1189.000000pt" width="1280.000000pt" xmlns="http://www.w3.org/2000/svg" version="1.0">
<metadata>
Created by potrace 1.15, written by Peter Selinger 2001-2017
</metadata>
<g stroke="none" fill="#000000" transform="translate(0.000000,1189.000000) scale(0.100000,-0.100000)">
<path d="M3405 10920 c-746 -76 -1392 -395 -1811 -894 -808 -964 -841 -2559
-88 -4243 122 -274 345 -698 484 -920 620 -993 1830 -2110 3454 -3187 391
-259 931 -596 955 -596 26 0 572 341 962 600 1650 1098 2858 2218 3466 3215
502 822 850 1747 962 2555 33 241 44 394 44 640 0 258 -11 398 -49 625 -126
757 -488 1353 -1055 1737 -684 464 -1594 600 -2421 362 -376 -108 -720 -285
-1038 -534 -139 -109 -433 -406 -544 -550 -86 -111 -248 -350 -296 -437 -13
-24 -27 -43 -30 -43 -4 0 -34 46 -67 103 -227 384 -561 753 -913 1008 -398
290 -863 476 -1361 544 -136 19 -527 27 -654 15z"></path>
</g>
</svg>
